<svg xmlns="http://www.w3.org/2000/svg" xmlns:xlink="http://www.w3.org/1999/xlink" width="81.998" height="77.864" viewBox="0 0 81.998 77.864"><defs><filter id="a" x="0" y="0" width="81.998" height="77.864" filterUnits="userSpaceOnUse"><feOffset dy="10" input="SourceAlpha"/><feGaussianBlur stdDeviation="10" result="b"/><feFlood flood-opacity="0.102"/><feComposite operator="in" in2="b"/><feComposite in="SourceGraphic"/></filter></defs><g transform="matrix(1, 0, 0, 1, 0, 0)" filter="url(#a)"><path d="M19.738,4.451c.013.2.013.392.013.585A12.741,12.741,0,0,1,6.923,17.864,12.734,12.734,0,0,1,0,15.84a9.352,9.352,0,0,0,1.089.055,9.028,9.028,0,0,0,5.6-1.927,4.516,4.516,0,0,1-4.215-3.126,5.7,5.7,0,0,0,.851.07,4.7,4.7,0,0,0,1.186-.154A4.5,4.5,0,0,1,.893,6.336V6.281a4.558,4.558,0,0,0,2.037.572A4.517,4.517,0,0,1,1.536.823a12.815,12.815,0,0,0,9.3,4.719,5.046,5.046,0,0,1-.112-1.034,4.512,4.512,0,0,1,7.8-3.084A8.892,8.892,0,0,0,21.384.334,4.486,4.486,0,0,1,19.4,2.818a9.059,9.059,0,0,0,2.6-.7,9.628,9.628,0,0,1-2.259,2.33Z" transform="translate(30 20)" fill="#1c9deb"/></g></svg>