<svg xmlns="http://www.w3.org/2000/svg" width="21" height="21" viewBox="0 0 21 21"><path d="M10.5,21a10.452,10.452,0,0,1-8.467-4.323l3.088-3.089a6.157,6.157,0,0,0,8.127,2.49l3.109,3.109A10.353,10.353,0,0,1,10.5,21Zm7.54-3.234h0l-3.013-3.012a6.117,6.117,0,0,0,1.06-1.5l.3-.616H10.542a.212.212,0,0,1-.212-.212V8.58a.215.215,0,0,1,.212-.212H20.606a.216.216,0,0,1,.211.167A10.62,10.62,0,0,1,21,10.5a10.38,10.38,0,0,1-2.958,7.269ZM.894,14.711h0a10.366,10.366,0,0,1,0-8.42L4.332,9.727a4.52,4.52,0,0,0,0,1.546L.895,14.709Zm4.227-7.3h0L2.033,4.323A10.449,10.449,0,0,1,17.209,2.44a.2.2,0,0,1,.075.154.207.207,0,0,1-.062.158L14.491,5.491a.214.214,0,0,1-.151.063.218.218,0,0,1-.128-.042A6.1,6.1,0,0,0,10.5,4.269,6.205,6.205,0,0,0,5.122,7.41Z" fill="#ea4335"/></svg>